<svg width="80" height="80" viewBox="0 0 80 80" fill="none" xmlns="http://www.w3.org/2000/svg">
<path fill-rule="evenodd" clip-rule="evenodd" d="M14.3925 14.125C13.3476 14.125 12.333 14.5218 11.575 15.2475C10.8149 15.9753 10.375 16.9767 10.375 18.0354V25.2667V34.9083V44.55V51.7812C10.375 52.8399 10.8149 53.8413 11.575 54.5691C12.333 55.2948 13.3476 55.6916 14.3925 55.6916H21.9452H27V52.6916H23.4452V44.55V36.4083H35.879C36.6109 36.334 37.3231 36.1188 37.9751 35.7726C38.7975 35.3359 39.4987 34.7045 40.0163 33.9344L40.3691 33.4083H23.4452V25.2667V17.125H45.6206V25.2667V28.177C46.0799 28.0598 46.5539 27.9999 47.0317 28H48.6206V26.7667H55.6908V28H57.9683C58.2106 28 58.4519 28.0153 58.6908 28.0458V25.2667V18.0354C58.6908 16.9767 58.251 15.9753 57.4908 15.2475C56.7329 14.5218 55.7183 14.125 54.6733 14.125H47.1206H21.9452H14.3925ZM13.375 33.4083V26.7667H20.4452V33.4083H13.375ZM13.375 23.7667H20.4452V17.125H14.3925C14.1021 17.125 13.836 17.2361 13.6497 17.4145C13.4656 17.5907 13.375 17.8155 13.375 18.0354V23.7667ZM48.6206 23.7667V17.125H54.6733C54.9637 17.125 55.2298 17.2361 55.4161 17.4145C55.6002 17.5907 55.6908 17.8155 55.6908 18.0354V23.7667H48.6206ZM20.4452 46.05V52.6916H14.3925C14.1021 52.6916 13.836 52.5806 13.6497 52.4022C13.4656 52.2259 13.375 52.0011 13.375 51.7812V46.05H20.4452ZM20.4452 43.05H13.375V36.4083H20.4452V43.05Z" fill="white"/>
<path d="M33.6628 44.3885C33.6628 43.3111 34.1018 42.2778 34.8832 41.5159C35.6646 40.754 36.7244 40.326 37.8295 40.326H39.767C40.4528 40.3261 41.128 40.1612 41.7328 39.8458C42.3375 39.5305 42.853 39.0744 43.2337 38.5182L44.9253 36.0401C45.3059 35.4839 45.8215 35.0278 46.4262 34.7125C47.031 34.3971 47.7062 34.2322 48.392 34.2323H56.4337C57.1195 34.2322 57.7947 34.3971 58.3994 34.7125C59.0042 35.0278 59.5197 35.4839 59.9003 36.0401L61.592 38.5182C61.9726 39.0744 62.4882 39.5305 63.0929 39.8458C63.6976 40.1612 64.3729 40.3261 65.0587 40.326H66.9962C68.1012 40.326 69.161 40.754 69.9424 41.5159C70.7238 42.2778 71.1628 43.3111 71.1628 44.3885V62.6698C71.1628 63.7472 70.7238 64.7805 69.9424 65.5424C69.161 66.3043 68.1012 66.7323 66.9962 66.7323H37.8295C36.7244 66.7323 35.6646 66.3043 34.8832 65.5424C34.1018 64.7805 33.6628 63.7472 33.6628 62.6698V44.3885Z" stroke="white" stroke-width="3" stroke-linecap="round" stroke-linejoin="round"/>
<path d="M58.6628 52.5135C58.6628 54.1297 58.0043 55.6796 56.8322 56.8224C55.6601 57.9652 54.0704 58.6072 52.4128 58.6072C50.7552 58.6072 49.1655 57.9652 47.9934 56.8224C46.8213 55.6796 46.1628 54.1297 46.1628 52.5135C46.1628 50.8973 46.8213 49.3474 47.9934 48.2046C49.1655 47.0618 50.7552 46.4197 52.4128 46.4197C54.0704 46.4197 55.6601 47.0618 56.8322 48.2046C58.0043 49.3474 58.6628 50.8973 58.6628 52.5135V52.5135Z" stroke="white" stroke-width="3" stroke-linecap="round" stroke-linejoin="round"/>
</svg>
